# xmcd
#
# Track frame offsets:
#	150
#	15325
#	29805
#	52644
#	67135
#	83550
#
# Disc length: 1352 seconds
#
# Revision: 1
# Processed by: cddbd v1.5.2PL0 Copyright (c) Steve Scherf et al.
# Submitted via: audiograbber 1.83.01
#
DISCID=40054606
DTITLE=Steve Payne - Steve Payne 6
DYEAR=1999
DGENRE=
TTITLE0=No Deal
TTITLE1=Simply The Way
TTITLE2=South Of The Border
TTITLE3=Wait Til The Morning Comes
TTITLE4=Blue For You
TTITLE5=Working Girl
EXTD=
EXTT0=
EXTT1=
EXTT2=
EXTT3=
EXTT4=
EXTT5=
PLAYORDER=
